<?xml version="1.0" encoding="iso-8859-1"?>
<!-- Generator: Adobe Illustrator 16.0.0, SVG Export Plug-In . SVG Version: 6.00 Build 0)  -->
<!DOCTYPE svg PUBLIC "-//W3C//DTD SVG 1.1//EN" "http://www.w3.org/Graphics/SVG/1.1/DTD/svg11.dtd">
<svg version="1.1" id="Capa_1" xmlns="http://www.w3.org/2000/svg" xmlns:xlink="http://www.w3.org/1999/xlink" x="0px" y="0px"
	 width="415.064px" height="415.064px" viewBox="0 0 415.064 415.064" style="enable-background:new 0 0 415.064 415.064;"
	 xml:space="preserve">
<g>
	<path d="M354.279,60.785C315.082,21.587,262.967,0,207.532,0C152.098,0,99.982,21.587,60.785,60.785
		C21.588,99.982,0,152.098,0,207.532c0,55.435,21.588,107.55,60.785,146.747c39.197,39.197,91.313,60.785,146.747,60.785
		c55.435,0,107.55-21.588,146.747-60.785c39.198-39.197,60.785-91.312,60.785-146.747
		C415.064,152.098,393.478,99.982,354.279,60.785z M207.532,339.918c-22.863,0-44.391-5.826-63.178-16.072l179.493-179.49
		c10.244,18.787,16.071,40.313,16.071,63.178C339.919,280.53,280.53,339.918,207.532,339.918z M207.532,75.145
		c22.862,0,44.392,5.827,63.178,16.073L91.219,270.711c-10.245-18.787-16.072-40.314-16.072-63.179
		C75.146,134.534,134.534,75.145,207.532,75.145z"/>
</g>
<g>
</g>
<g>
</g>
<g>
</g>
<g>
</g>
<g>
</g>
<g>
</g>
<g>
</g>
<g>
</g>
<g>
</g>
<g>
</g>
<g>
</g>
<g>
</g>
<g>
</g>
<g>
</g>
<g>
</g>
</svg>
